<svg viewBox="0 0 110.8 122.88" xmlns="http://www.w3.org/2000/svg"><path fill="#8ed6fb" d="M107.39 94.71l-49.8 28.17v-21.94l31-17.07 18.8 10.83zm3.41-3.09V32.71L92.58 43.24v37.87l18.22 10.51zM3.41 94.71l49.8 28.17v-21.94l-31-17.07-18.8 10.84zM0 91.62V32.71l18.22 10.53v37.87L0 91.62zm2.14-62.73L53.21 0v21.2l-32.73 18-.26.14L2.14 28.89zm106.52 0L57.59 0v21.2l32.73 18 .26.15 18.08-10.45z"/><path fill="#1c78c0" d="M53.21 96L22.59 79.1V45.75l30.62 17.68V96zm4.38 0l30.62-16.88V45.75L57.59 63.43V96zM24.66 42L55.4 25l30.74 16.9L55.4 59.64 24.66 41.9z"/></svg>
