<?xml version="1.0" standalone="no"?>
<!DOCTYPE svg PUBLIC "-//W3C//DTD SVG 20010904//EN"
 "http://www.w3.org/TR/2001/REC-SVG-20010904/DTD/svg10.dtd">
<svg version="1.0" xmlns="http://www.w3.org/2000/svg"
 width="344.000000pt" height="344.000000pt" viewBox="0 0 344.000000 344.000000"
 preserveAspectRatio="xMidYMid meet">
<metadata>
Created by potrace 1.14, written by Peter Selinger 2001-2017
</metadata>
<g transform="translate(0.000000,344.000000) scale(0.100000,-0.100000)"
fill="#000000" stroke="none">
<path d="M924 2385 c-9 -24 -1 -27 76 -33 l70 -5 0 -622 0 -623 -75 -7 c-65
-6 -75 -9 -75 -26 0 -18 9 -19 170 -19 162 0 170 1 170 19 0 17 -10 21 -69 27
l-69 6 -7 402 c-3 220 -5 488 -3 595 l3 195 245 -628 c135 -345 251 -630 259
-633 7 -3 17 0 21 7 5 7 106 281 225 609 120 328 219 598 221 600 2 2 4 -255
4 -571 l0 -575 -70 -7 c-60 -6 -70 -10 -70 -27 0 -18 9 -19 260 -19 251 0 260
1 260 19 0 17 -10 21 -70 27 l-70 7 0 623 0 624 48 0 c66 0 92 9 92 31 0 18
-11 19 -189 19 l-188 0 -184 -500 c-101 -275 -187 -500 -190 -500 -3 0 -93
224 -200 498 l-195 497 -197 3 c-172 2 -198 0 -203 -13z"/>
</g>
</svg>
